<mxfile host="app.diagrams.net" agent="Mozilla/5.0 (Windows NT 10.0; Win64; x64) AppleWebKit/537.36 (KHTML, like Gecko) Chrome/141.0.0.0 Safari/537.36 Edg/141.0.0.0" version="28.2.7">
  <diagram id="C5RBs43oDa-KdzZeNtuy" name="Page-1">
    <mxGraphModel dx="1356" dy="698" grid="1" gridSize="10" guides="1" tooltips="1" connect="1" arrows="1" fold="1" page="1" pageScale="1" pageWidth="827" pageHeight="1169" math="0" shadow="0">
      <root>
        <mxCell id="WIyWlLk6GJQsqaUBKTNV-0" />
        <mxCell id="WIyWlLk6GJQsqaUBKTNV-1" parent="WIyWlLk6GJQsqaUBKTNV-0" />
        <mxCell id="emOdoEsjV926fwIJ54Cw-0" value="PagoTarjetaDigital&lt;Usuario&gt;" style="swimlane;fontStyle=2;align=center;verticalAlign=top;childLayout=stackLayout;horizontal=1;startSize=26;horizontalStack=0;resizeParent=1;resizeLast=0;collapsible=1;marginBottom=0;rounded=0;shadow=0;strokeWidth=1;" vertex="1" parent="WIyWlLk6GJQsqaUBKTNV-1">
          <mxGeometry x="1160" y="333" width="260" height="138" as="geometry">
            <mxRectangle x="230" y="140" width="160" height="26" as="alternateBounds" />
          </mxGeometry>
        </mxCell>
        <mxCell id="emOdoEsjV926fwIJ54Cw-1" value="+ idCliente: str" style="text;strokeColor=none;fillColor=none;align=left;verticalAlign=top;spacingLeft=4;spacingRight=4;overflow=hidden;rotatable=0;points=[[0,0.5],[1,0.5]];portConstraint=eastwest;whiteSpace=wrap;html=1;" vertex="1" parent="emOdoEsjV926fwIJ54Cw-0">
          <mxGeometry y="26" width="260" height="26" as="geometry" />
        </mxCell>
        <mxCell id="emOdoEsjV926fwIJ54Cw-2" value="+ monto: float" style="text;strokeColor=none;fillColor=none;align=left;verticalAlign=top;spacingLeft=4;spacingRight=4;overflow=hidden;rotatable=0;points=[[0,0.5],[1,0.5]];portConstraint=eastwest;whiteSpace=wrap;html=1;" vertex="1" parent="emOdoEsjV926fwIJ54Cw-0">
          <mxGeometry y="52" width="260" height="28" as="geometry" />
        </mxCell>
        <mxCell id="emOdoEsjV926fwIJ54Cw-52" value="+ idDis: str" style="text;strokeColor=none;fillColor=none;align=left;verticalAlign=top;spacingLeft=4;spacingRight=4;overflow=hidden;rotatable=0;points=[[0,0.5],[1,0.5]];portConstraint=eastwest;whiteSpace=wrap;html=1;" vertex="1" parent="emOdoEsjV926fwIJ54Cw-0">
          <mxGeometry y="80" width="260" height="26" as="geometry" />
        </mxCell>
        <mxCell id="emOdoEsjV926fwIJ54Cw-3" value="" style="line;html=1;strokeWidth=1;align=left;verticalAlign=middle;spacingTop=-1;spacingLeft=3;spacingRight=3;rotatable=0;labelPosition=right;points=[];portConstraint=eastwest;" vertex="1" parent="emOdoEsjV926fwIJ54Cw-0">
          <mxGeometry y="106" width="260" height="8" as="geometry" />
        </mxCell>
        <mxCell id="emOdoEsjV926fwIJ54Cw-4" value="+ pagoCel(idCliente, monto, idDis): Response" style="text;strokeColor=none;fillColor=none;align=left;verticalAlign=top;spacingLeft=4;spacingRight=4;overflow=hidden;rotatable=0;points=[[0,0.5],[1,0.5]];portConstraint=eastwest;whiteSpace=wrap;html=1;" vertex="1" parent="emOdoEsjV926fwIJ54Cw-0">
          <mxGeometry y="114" width="260" height="24" as="geometry" />
        </mxCell>
        <mxCell id="emOdoEsjV926fwIJ54Cw-5" value="ICRUD&amp;lt;E&amp;gt;" style="swimlane;fontStyle=0;childLayout=stackLayout;horizontal=1;startSize=26;fillColor=none;horizontalStack=0;resizeParent=1;resizeParentMax=0;resizeLast=0;collapsible=1;marginBottom=0;whiteSpace=wrap;html=1;" vertex="1" parent="WIyWlLk6GJQsqaUBKTNV-1">
          <mxGeometry x="340" y="180" width="220" height="130" as="geometry" />
        </mxCell>
        <mxCell id="emOdoEsjV926fwIJ54Cw-6" value="add(input): Response" style="label;fontStyle=0;strokeColor=none;fillColor=none;align=left;verticalAlign=top;overflow=hidden;spacingLeft=28;spacingRight=4;rotatable=0;points=[[0,0.5],[1,0.5]];portConstraint=eastwest;imageWidth=16;imageHeight=16;whiteSpace=wrap;html=1;image=img/clipart/Gear_128x128.png" vertex="1" parent="emOdoEsjV926fwIJ54Cw-5">
          <mxGeometry y="26" width="220" height="26" as="geometry" />
        </mxCell>
        <mxCell id="emOdoEsjV926fwIJ54Cw-7" value="update(key, input): Response" style="label;fontStyle=0;strokeColor=none;fillColor=none;align=left;verticalAlign=top;overflow=hidden;spacingLeft=28;spacingRight=4;rotatable=0;points=[[0,0.5],[1,0.5]];portConstraint=eastwest;imageWidth=16;imageHeight=16;whiteSpace=wrap;html=1;image=img/clipart/Gear_128x128.png" vertex="1" parent="emOdoEsjV926fwIJ54Cw-5">
          <mxGeometry y="52" width="220" height="26" as="geometry" />
        </mxCell>
        <mxCell id="emOdoEsjV926fwIJ54Cw-8" value="delete(key): Response" style="label;fontStyle=0;strokeColor=none;fillColor=none;align=left;verticalAlign=top;overflow=hidden;spacingLeft=28;spacingRight=4;rotatable=0;points=[[0,0.5],[1,0.5]];portConstraint=eastwest;imageWidth=16;imageHeight=16;whiteSpace=wrap;html=1;image=img/clipart/Gear_128x128.png" vertex="1" parent="emOdoEsjV926fwIJ54Cw-5">
          <mxGeometry y="78" width="220" height="26" as="geometry" />
        </mxCell>
        <mxCell id="emOdoEsjV926fwIJ54Cw-9" value="query(key): Response" style="label;fontStyle=0;strokeColor=none;fillColor=none;align=left;verticalAlign=top;overflow=hidden;spacingLeft=28;spacingRight=4;rotatable=0;points=[[0,0.5],[1,0.5]];portConstraint=eastwest;imageWidth=16;imageHeight=16;whiteSpace=wrap;html=1;image=img/clipart/Gear_128x128.png" vertex="1" parent="emOdoEsjV926fwIJ54Cw-5">
          <mxGeometry y="104" width="220" height="26" as="geometry" />
        </mxCell>
        <mxCell id="emOdoEsjV926fwIJ54Cw-10" value="«interface»&lt;br&gt;&lt;b&gt;input&lt;/b&gt;" style="html=1;whiteSpace=wrap;" vertex="1" parent="WIyWlLk6GJQsqaUBKTNV-1">
          <mxGeometry x="310" y="360" width="110" height="50" as="geometry" />
        </mxCell>
        <mxCell id="emOdoEsjV926fwIJ54Cw-11" value="Use" style="endArrow=open;endSize=12;dashed=1;html=1;rounded=0;exitX=0.494;exitY=1.108;exitDx=0;exitDy=0;exitPerimeter=0;" edge="1" parent="WIyWlLk6GJQsqaUBKTNV-1" source="emOdoEsjV926fwIJ54Cw-9" target="emOdoEsjV926fwIJ54Cw-10">
          <mxGeometry width="160" relative="1" as="geometry">
            <mxPoint x="490" y="410" as="sourcePoint" />
            <mxPoint x="410" y="400" as="targetPoint" />
          </mxGeometry>
        </mxCell>
        <mxCell id="emOdoEsjV926fwIJ54Cw-12" value="Usuarioinput" style="swimlane;fontStyle=2;align=center;verticalAlign=top;childLayout=stackLayout;horizontal=1;startSize=26;horizontalStack=0;resizeParent=1;resizeLast=0;collapsible=1;marginBottom=0;rounded=0;shadow=0;strokeWidth=1;" vertex="1" parent="WIyWlLk6GJQsqaUBKTNV-1">
          <mxGeometry x="300" y="469" width="130" height="80" as="geometry">
            <mxRectangle x="230" y="140" width="160" height="26" as="alternateBounds" />
          </mxGeometry>
        </mxCell>
        <mxCell id="emOdoEsjV926fwIJ54Cw-13" value="+ email: str" style="text;strokeColor=none;fillColor=none;align=left;verticalAlign=top;spacingLeft=4;spacingRight=4;overflow=hidden;rotatable=0;points=[[0,0.5],[1,0.5]];portConstraint=eastwest;whiteSpace=wrap;html=1;" vertex="1" parent="emOdoEsjV926fwIJ54Cw-12">
          <mxGeometry y="26" width="130" height="26" as="geometry" />
        </mxCell>
        <mxCell id="emOdoEsjV926fwIJ54Cw-14" value="+ pass: str" style="text;strokeColor=none;fillColor=none;align=left;verticalAlign=top;spacingLeft=4;spacingRight=4;overflow=hidden;rotatable=0;points=[[0,0.5],[1,0.5]];portConstraint=eastwest;whiteSpace=wrap;html=1;" vertex="1" parent="emOdoEsjV926fwIJ54Cw-12">
          <mxGeometry y="52" width="130" height="20" as="geometry" />
        </mxCell>
        <mxCell id="emOdoEsjV926fwIJ54Cw-15" value="Extends" style="endArrow=block;endSize=16;endFill=0;html=1;rounded=0;exitX=0.5;exitY=0;exitDx=0;exitDy=0;entryX=0.5;entryY=1;entryDx=0;entryDy=0;" edge="1" parent="WIyWlLk6GJQsqaUBKTNV-1" source="emOdoEsjV926fwIJ54Cw-12" target="emOdoEsjV926fwIJ54Cw-10">
          <mxGeometry width="160" relative="1" as="geometry">
            <mxPoint x="540" y="410" as="sourcePoint" />
            <mxPoint x="700" y="410" as="targetPoint" />
          </mxGeometry>
        </mxCell>
        <mxCell id="emOdoEsjV926fwIJ54Cw-16" value="Response" style="swimlane;fontStyle=2;align=center;verticalAlign=top;childLayout=stackLayout;horizontal=1;startSize=26;horizontalStack=0;resizeParent=1;resizeLast=0;collapsible=1;marginBottom=0;rounded=0;shadow=0;strokeWidth=1;" vertex="1" parent="WIyWlLk6GJQsqaUBKTNV-1">
          <mxGeometry x="470" y="360" width="130" height="78" as="geometry">
            <mxRectangle x="230" y="140" width="160" height="26" as="alternateBounds" />
          </mxGeometry>
        </mxCell>
        <mxCell id="emOdoEsjV926fwIJ54Cw-17" value="+ status: HtttpCde" style="text;strokeColor=none;fillColor=none;align=left;verticalAlign=top;spacingLeft=4;spacingRight=4;overflow=hidden;rotatable=0;points=[[0,0.5],[1,0.5]];portConstraint=eastwest;whiteSpace=wrap;html=1;" vertex="1" parent="emOdoEsjV926fwIJ54Cw-16">
          <mxGeometry y="26" width="130" height="26" as="geometry" />
        </mxCell>
        <mxCell id="emOdoEsjV926fwIJ54Cw-18" value="+ body: Object" style="text;strokeColor=none;fillColor=none;align=left;verticalAlign=top;spacingLeft=4;spacingRight=4;overflow=hidden;rotatable=0;points=[[0,0.5],[1,0.5]];portConstraint=eastwest;whiteSpace=wrap;html=1;" vertex="1" parent="emOdoEsjV926fwIJ54Cw-16">
          <mxGeometry y="52" width="130" height="26" as="geometry" />
        </mxCell>
        <mxCell id="emOdoEsjV926fwIJ54Cw-19" value="Use" style="endArrow=open;endSize=12;dashed=1;html=1;rounded=0;entryX=0.5;entryY=0;entryDx=0;entryDy=0;exitX=0.487;exitY=1.077;exitDx=0;exitDy=0;exitPerimeter=0;" edge="1" parent="WIyWlLk6GJQsqaUBKTNV-1" source="emOdoEsjV926fwIJ54Cw-9" target="emOdoEsjV926fwIJ54Cw-16">
          <mxGeometry width="160" relative="1" as="geometry">
            <mxPoint x="450" y="320" as="sourcePoint" />
            <mxPoint x="430" y="367" as="targetPoint" />
          </mxGeometry>
        </mxCell>
        <mxCell id="emOdoEsjV926fwIJ54Cw-20" value="HttpCode" style="html=1;whiteSpace=wrap;" vertex="1" parent="WIyWlLk6GJQsqaUBKTNV-1">
          <mxGeometry x="480" y="484" width="110" height="50" as="geometry" />
        </mxCell>
        <mxCell id="emOdoEsjV926fwIJ54Cw-21" value="Use" style="endArrow=open;endSize=12;dashed=1;html=1;rounded=0;exitX=0.477;exitY=0.985;exitDx=0;exitDy=0;exitPerimeter=0;" edge="1" parent="WIyWlLk6GJQsqaUBKTNV-1" source="emOdoEsjV926fwIJ54Cw-18" target="emOdoEsjV926fwIJ54Cw-20">
          <mxGeometry width="160" relative="1" as="geometry">
            <mxPoint x="765" y="440" as="sourcePoint" />
            <mxPoint x="710" y="487" as="targetPoint" />
          </mxGeometry>
        </mxCell>
        <mxCell id="emOdoEsjV926fwIJ54Cw-22" value="«interface»&lt;br&gt;&lt;b&gt;ICRUD&lt;/b&gt;" style="html=1;whiteSpace=wrap;" vertex="1" parent="WIyWlLk6GJQsqaUBKTNV-1">
          <mxGeometry x="1060" y="190" width="110" height="50" as="geometry" />
        </mxCell>
        <mxCell id="emOdoEsjV926fwIJ54Cw-23" value="Extends" style="endArrow=block;endSize=16;endFill=0;html=1;rounded=0;exitX=0.5;exitY=0;exitDx=0;exitDy=0;entryX=0.5;entryY=1;entryDx=0;entryDy=0;" edge="1" parent="WIyWlLk6GJQsqaUBKTNV-1" source="emOdoEsjV926fwIJ54Cw-0" target="emOdoEsjV926fwIJ54Cw-22">
          <mxGeometry width="160" relative="1" as="geometry">
            <mxPoint x="760" y="450" as="sourcePoint" />
            <mxPoint x="760" y="390" as="targetPoint" />
            <Array as="points" />
          </mxGeometry>
        </mxCell>
        <mxCell id="emOdoEsjV926fwIJ54Cw-24" value="Use" style="endArrow=open;endSize=12;dashed=1;html=1;rounded=0;entryX=1;entryY=0.5;entryDx=0;entryDy=0;exitX=0.523;exitY=0.925;exitDx=0;exitDy=0;exitPerimeter=0;" edge="1" parent="WIyWlLk6GJQsqaUBKTNV-1" source="emOdoEsjV926fwIJ54Cw-4" target="emOdoEsjV926fwIJ54Cw-17">
          <mxGeometry width="160" relative="1" as="geometry">
            <mxPoint x="710" y="425" as="sourcePoint" />
            <mxPoint x="758" y="488" as="targetPoint" />
            <Array as="points">
              <mxPoint x="1296" y="560" />
              <mxPoint x="670" y="560" />
              <mxPoint x="670" y="399" />
            </Array>
          </mxGeometry>
        </mxCell>
        <mxCell id="emOdoEsjV926fwIJ54Cw-25" value="&lt;font style=&quot;font-size: 14px;&quot;&gt;&amp;nbsp;Supuesto 7:&lt;/font&gt;&lt;div&gt;&lt;font style=&quot;font-size: 14px;&quot;&gt;Se aceptan pagos mediante&amp;nbsp;&lt;/font&gt;&lt;/div&gt;&lt;div&gt;&lt;font style=&quot;font-size: 14px;&quot;&gt;webpay y&lt;/font&gt; &lt;font style=&quot;font-size: 14px;&quot;&gt;tarjetas digitales.&lt;/font&gt;&lt;/div&gt;" style="html=1;whiteSpace=wrap;fillColor=#dae8fc;strokeColor=#6c8ebf;" vertex="1" parent="WIyWlLk6GJQsqaUBKTNV-1">
          <mxGeometry x="530" y="650" width="210" height="80" as="geometry" />
        </mxCell>
        <mxCell id="emOdoEsjV926fwIJ54Cw-26" value="200: OK&lt;div&gt;400: Not Allowed&lt;/div&gt;&lt;div&gt;&lt;div&gt;404: Not Found&amp;nbsp;&lt;/div&gt;&lt;/div&gt;" style="html=1;whiteSpace=wrap;dashed=1;" vertex="1" parent="WIyWlLk6GJQsqaUBKTNV-1">
          <mxGeometry x="460" y="549" width="140" height="72" as="geometry" />
        </mxCell>
        <mxCell id="emOdoEsjV926fwIJ54Cw-27" value="Logger&lt;A&gt;" style="swimlane;fontStyle=2;align=center;verticalAlign=top;childLayout=stackLayout;horizontal=1;startSize=26;horizontalStack=0;resizeParent=1;resizeLast=0;collapsible=1;marginBottom=0;rounded=0;shadow=0;strokeWidth=1;" vertex="1" parent="WIyWlLk6GJQsqaUBKTNV-1">
          <mxGeometry x="637" y="180" width="130" height="104" as="geometry">
            <mxRectangle x="230" y="140" width="160" height="26" as="alternateBounds" />
          </mxGeometry>
        </mxCell>
        <mxCell id="emOdoEsjV926fwIJ54Cw-28" value="+ fecha: timestamp" style="text;strokeColor=none;fillColor=none;align=left;verticalAlign=top;spacingLeft=4;spacingRight=4;overflow=hidden;rotatable=0;points=[[0,0.5],[1,0.5]];portConstraint=eastwest;whiteSpace=wrap;html=1;" vertex="1" parent="emOdoEsjV926fwIJ54Cw-27">
          <mxGeometry y="26" width="130" height="26" as="geometry" />
        </mxCell>
        <mxCell id="emOdoEsjV926fwIJ54Cw-29" value="+ entity: A" style="text;strokeColor=none;fillColor=none;align=left;verticalAlign=top;spacingLeft=4;spacingRight=4;overflow=hidden;rotatable=0;points=[[0,0.5],[1,0.5]];portConstraint=eastwest;whiteSpace=wrap;html=1;" vertex="1" parent="emOdoEsjV926fwIJ54Cw-27">
          <mxGeometry y="52" width="130" height="26" as="geometry" />
        </mxCell>
        <mxCell id="emOdoEsjV926fwIJ54Cw-30" value="+ content: Object" style="text;strokeColor=none;fillColor=none;align=left;verticalAlign=top;spacingLeft=4;spacingRight=4;overflow=hidden;rotatable=0;points=[[0,0.5],[1,0.5]];portConstraint=eastwest;whiteSpace=wrap;html=1;" vertex="1" parent="emOdoEsjV926fwIJ54Cw-27">
          <mxGeometry y="78" width="130" height="26" as="geometry" />
        </mxCell>
        <mxCell id="emOdoEsjV926fwIJ54Cw-31" value="Extends" style="endArrow=block;endSize=16;endFill=0;html=1;rounded=0;exitX=0;exitY=0.5;exitDx=0;exitDy=0;" edge="1" parent="WIyWlLk6GJQsqaUBKTNV-1" source="emOdoEsjV926fwIJ54Cw-29">
          <mxGeometry width="160" relative="1" as="geometry">
            <mxPoint x="580" y="424" as="sourcePoint" />
            <mxPoint x="560" y="245" as="targetPoint" />
          </mxGeometry>
        </mxCell>
        <mxCell id="emOdoEsjV926fwIJ54Cw-32" value="PagoWebpay&lt;Usuario&gt;" style="swimlane;fontStyle=2;align=center;verticalAlign=top;childLayout=stackLayout;horizontal=1;startSize=26;horizontalStack=0;resizeParent=1;resizeLast=0;collapsible=1;marginBottom=0;rounded=0;shadow=0;strokeWidth=1;" vertex="1" parent="WIyWlLk6GJQsqaUBKTNV-1">
          <mxGeometry x="720" y="333" width="390" height="190" as="geometry">
            <mxRectangle x="230" y="140" width="160" height="26" as="alternateBounds" />
          </mxGeometry>
        </mxCell>
        <mxCell id="emOdoEsjV926fwIJ54Cw-33" value="+ idCliente: str" style="text;strokeColor=none;fillColor=none;align=left;verticalAlign=top;spacingLeft=4;spacingRight=4;overflow=hidden;rotatable=0;points=[[0,0.5],[1,0.5]];portConstraint=eastwest;whiteSpace=wrap;html=1;" vertex="1" parent="emOdoEsjV926fwIJ54Cw-32">
          <mxGeometry y="26" width="390" height="26" as="geometry" />
        </mxCell>
        <mxCell id="emOdoEsjV926fwIJ54Cw-34" value="+ monto: float" style="text;strokeColor=none;fillColor=none;align=left;verticalAlign=top;spacingLeft=4;spacingRight=4;overflow=hidden;rotatable=0;points=[[0,0.5],[1,0.5]];portConstraint=eastwest;whiteSpace=wrap;html=1;" vertex="1" parent="emOdoEsjV926fwIJ54Cw-32">
          <mxGeometry y="52" width="390" height="28" as="geometry" />
        </mxCell>
        <mxCell id="emOdoEsjV926fwIJ54Cw-49" value="+ numTarjeta: str" style="text;strokeColor=none;fillColor=none;align=left;verticalAlign=top;spacingLeft=4;spacingRight=4;overflow=hidden;rotatable=0;points=[[0,0.5],[1,0.5]];portConstraint=eastwest;whiteSpace=wrap;html=1;" vertex="1" parent="emOdoEsjV926fwIJ54Cw-32">
          <mxGeometry y="80" width="390" height="26" as="geometry" />
        </mxCell>
        <mxCell id="emOdoEsjV926fwIJ54Cw-50" value="+ vencimiento: str" style="text;strokeColor=none;fillColor=none;align=left;verticalAlign=top;spacingLeft=4;spacingRight=4;overflow=hidden;rotatable=0;points=[[0,0.5],[1,0.5]];portConstraint=eastwest;whiteSpace=wrap;html=1;" vertex="1" parent="emOdoEsjV926fwIJ54Cw-32">
          <mxGeometry y="106" width="390" height="26" as="geometry" />
        </mxCell>
        <mxCell id="emOdoEsjV926fwIJ54Cw-51" value="+ cvv: str" style="text;strokeColor=none;fillColor=none;align=left;verticalAlign=top;spacingLeft=4;spacingRight=4;overflow=hidden;rotatable=0;points=[[0,0.5],[1,0.5]];portConstraint=eastwest;whiteSpace=wrap;html=1;" vertex="1" parent="emOdoEsjV926fwIJ54Cw-32">
          <mxGeometry y="132" width="390" height="26" as="geometry" />
        </mxCell>
        <mxCell id="emOdoEsjV926fwIJ54Cw-35" value="" style="line;html=1;strokeWidth=1;align=left;verticalAlign=middle;spacingTop=-1;spacingLeft=3;spacingRight=3;rotatable=0;labelPosition=right;points=[];portConstraint=eastwest;" vertex="1" parent="emOdoEsjV926fwIJ54Cw-32">
          <mxGeometry y="158" width="390" height="8" as="geometry" />
        </mxCell>
        <mxCell id="emOdoEsjV926fwIJ54Cw-36" value="+ pagoW (idCliente, monto, numTarjeta, vencimiento, cvv): Response" style="text;strokeColor=none;fillColor=none;align=left;verticalAlign=top;spacingLeft=4;spacingRight=4;overflow=hidden;rotatable=0;points=[[0,0.5],[1,0.5]];portConstraint=eastwest;whiteSpace=wrap;html=1;" vertex="1" parent="emOdoEsjV926fwIJ54Cw-32">
          <mxGeometry y="166" width="390" height="24" as="geometry" />
        </mxCell>
        <mxCell id="emOdoEsjV926fwIJ54Cw-37" value="Use" style="endArrow=open;endSize=12;dashed=1;html=1;rounded=0;entryX=1;entryY=0.5;entryDx=0;entryDy=0;exitX=0;exitY=0.5;exitDx=0;exitDy=0;" edge="1" parent="WIyWlLk6GJQsqaUBKTNV-1" source="emOdoEsjV926fwIJ54Cw-34" target="emOdoEsjV926fwIJ54Cw-17">
          <mxGeometry width="160" relative="1" as="geometry">
            <mxPoint x="775" y="567" as="sourcePoint" />
            <mxPoint x="660" y="520" as="targetPoint" />
            <Array as="points" />
          </mxGeometry>
        </mxCell>
        <mxCell id="emOdoEsjV926fwIJ54Cw-38" value="Extends" style="endArrow=block;endSize=16;endFill=0;html=1;rounded=0;exitX=0.5;exitY=0;exitDx=0;exitDy=0;entryX=0.5;entryY=1;entryDx=0;entryDy=0;" edge="1" parent="WIyWlLk6GJQsqaUBKTNV-1" source="emOdoEsjV926fwIJ54Cw-32" target="emOdoEsjV926fwIJ54Cw-22">
          <mxGeometry width="160" relative="1" as="geometry">
            <mxPoint x="1060" y="410" as="sourcePoint" />
            <mxPoint x="1070" y="280" as="targetPoint" />
          </mxGeometry>
        </mxCell>
        <mxCell id="emOdoEsjV926fwIJ54Cw-41" style="edgeStyle=none;curved=1;rounded=0;orthogonalLoop=1;jettySize=auto;html=1;exitX=0.75;exitY=0;exitDx=0;exitDy=0;fontSize=12;startSize=8;endSize=8;" edge="1" parent="WIyWlLk6GJQsqaUBKTNV-1">
          <mxGeometry relative="1" as="geometry">
            <mxPoint x="1403.25" y="469" as="sourcePoint" />
            <mxPoint x="1403.25" y="469" as="targetPoint" />
          </mxGeometry>
        </mxCell>
        <mxCell id="emOdoEsjV926fwIJ54Cw-44" value="ICRUDA&amp;lt;R&amp;gt;" style="swimlane;fontStyle=0;childLayout=stackLayout;horizontal=1;startSize=26;fillColor=none;horizontalStack=0;resizeParent=1;resizeParentMax=0;resizeLast=0;collapsible=1;marginBottom=0;whiteSpace=wrap;html=1;" vertex="1" parent="WIyWlLk6GJQsqaUBKTNV-1">
          <mxGeometry x="1050" y="610" width="120" height="52" as="geometry" />
        </mxCell>
        <mxCell id="emOdoEsjV926fwIJ54Cw-45" value="+ entity: R" style="text;strokeColor=none;fillColor=none;align=left;verticalAlign=top;spacingLeft=4;spacingRight=4;overflow=hidden;rotatable=0;points=[[0,0.5],[1,0.5]];portConstraint=eastwest;whiteSpace=wrap;html=1;" vertex="1" parent="emOdoEsjV926fwIJ54Cw-44">
          <mxGeometry y="26" width="120" height="26" as="geometry" />
        </mxCell>
        <mxCell id="emOdoEsjV926fwIJ54Cw-47" value="" style="endArrow=block;dashed=1;endFill=0;endSize=12;html=1;rounded=0;fontSize=12;curved=1;exitX=0.526;exitY=1.058;exitDx=0;exitDy=0;entryX=0.5;entryY=0;entryDx=0;entryDy=0;exitPerimeter=0;" edge="1" parent="WIyWlLk6GJQsqaUBKTNV-1" source="emOdoEsjV926fwIJ54Cw-4" target="emOdoEsjV926fwIJ54Cw-44">
          <mxGeometry width="160" relative="1" as="geometry">
            <mxPoint x="1020" y="650" as="sourcePoint" />
            <mxPoint x="1200" y="600" as="targetPoint" />
          </mxGeometry>
        </mxCell>
        <mxCell id="emOdoEsjV926fwIJ54Cw-48" value="" style="endArrow=block;dashed=1;endFill=0;endSize=12;html=1;rounded=0;fontSize=12;curved=1;entryX=0.5;entryY=0;entryDx=0;entryDy=0;exitX=0.486;exitY=1.058;exitDx=0;exitDy=0;exitPerimeter=0;" edge="1" parent="WIyWlLk6GJQsqaUBKTNV-1" source="emOdoEsjV926fwIJ54Cw-36" target="emOdoEsjV926fwIJ54Cw-44">
          <mxGeometry width="160" relative="1" as="geometry">
            <mxPoint x="1070" y="570" as="sourcePoint" />
            <mxPoint x="1072" y="623" as="targetPoint" />
          </mxGeometry>
        </mxCell>
      </root>
    </mxGraphModel>
  </diagram>
</mxfile>
